<svg width="154" height="57" viewBox="0 0 154 57" fill="none" xmlns="http://www.w3.org/2000/svg">
<path d="M28.1246 29.7741C28.2389 29.3169 28.1967 28.8461 28.2213 28.3839C28.3039 26.8463 28.4551 25.3104 28.4463 23.7677C28.4445 23.4443 28.4691 23.1192 28.4973 22.7974C28.5447 22.2708 29.0052 21.8458 29.5378 21.8187C30.0299 21.795 30.5027 22.1641 30.6117 22.6755C30.6556 22.8787 30.6609 23.0887 30.6873 23.3427C31.0124 23.026 31.2532 22.6941 31.5802 22.4418C31.995 22.1218 32.4396 21.8525 32.9494 21.7052C33.9354 21.4207 34.8617 21.7763 35.5788 22.7077C36.1869 23.4968 36.4594 24.4078 36.5947 25.3629C36.6826 25.986 36.7054 26.6143 36.7336 27.2425C36.7986 28.7208 36.7213 30.2042 36.9146 31.6774C37.0306 32.5648 37.173 33.447 37.5931 34.2598C38.0975 35.2369 38.8779 35.6111 39.9993 35.4689C41.4089 35.2894 42.6199 34.6781 43.7589 33.9042C45.2001 32.9255 46.4147 31.7232 47.478 30.3736C47.6204 30.1924 47.7048 29.9925 47.7733 29.7758C48.617 27.1223 50.0301 24.821 52.3397 23.1056C53.331 22.369 54.4647 21.9525 55.739 21.9846C55.9798 21.9914 56.2223 22.0236 56.4578 22.0693C57.1468 22.2048 57.5019 22.7145 57.3999 23.3901C57.3613 23.6458 57.2769 23.8812 57.1293 24.098C56.892 24.4451 56.551 24.6229 56.1309 24.5416C55.0588 24.335 54.1395 24.6551 53.3521 25.3155C51.1796 27.1358 49.9194 29.4405 49.5732 32.1939C49.4905 32.8476 49.6347 33.491 49.9721 34.0752C50.5504 35.0794 51.6472 35.2877 52.5963 34.59C53.2414 34.1159 53.6685 33.4775 54.0305 32.7985C55.1115 30.7715 55.8479 28.6328 56.2206 26.3806C56.2223 26.3704 56.2241 26.3603 56.2258 26.3501C56.3506 25.7066 56.7127 25.3392 57.2189 25.3392C57.7462 25.3375 58.1926 25.7354 58.3403 26.3281C58.451 26.7768 58.4123 27.2374 58.444 27.6913C58.5196 28.8343 58.5459 29.979 58.5969 31.1237C58.6742 32.834 58.7568 34.546 58.8342 36.2563C58.843 36.4426 58.8887 36.5272 59.0961 36.4307C61.1314 35.4807 63.2054 34.5985 64.993 33.2167C66.3428 32.1736 67.4976 30.9612 68.4924 29.6031C68.5979 29.4591 68.6559 29.3017 68.6981 29.1306C69.2289 27.0342 70.2624 25.2037 71.8073 23.639C72.2098 23.2326 72.6563 22.8804 73.1801 22.6264C74.6881 21.8932 76.4844 22.3758 77.3878 23.7542C78.0681 24.7922 78.2649 25.9403 78.177 27.1392C78.0821 28.4194 77.7007 29.6098 76.8465 30.6242C75.3824 32.3616 72.8022 32.1177 71.6913 30.1433C71.4663 29.7436 71.324 29.3118 71.1377 28.8241C70.8635 29.4185 70.7035 29.9739 70.635 30.5463C70.5102 31.5775 70.5647 32.5936 71.041 33.552C71.6843 34.8491 72.7811 35.6044 74.1889 35.9837C77.8167 36.9607 81.1527 36.2444 84.2585 34.3259C86.6928 32.8222 88.5172 30.7546 89.9972 28.3872C90.2028 28.057 90.136 27.6726 90.1571 27.317C90.2433 25.8607 90.2942 24.4011 90.3575 22.9431C90.3856 22.3148 90.8391 21.839 91.4261 21.8271C92.0202 21.8136 92.4948 22.2911 92.5247 22.9397C92.5317 23.0701 92.5264 23.2022 92.5264 23.3613C92.6618 23.319 92.7022 23.2208 92.7637 23.1497C93.2101 22.6264 93.7199 22.1828 94.3632 21.8881C95.4142 21.4055 96.3722 21.5782 97.1719 22.4012C97.9874 23.2411 98.3196 24.2791 98.4655 25.3815C98.6659 26.9038 98.6272 28.4363 98.6641 29.9671C98.6905 31.1034 98.7995 32.2346 99.1053 33.3386C99.1949 33.6621 99.3092 33.977 99.4674 34.2785C99.9736 35.242 100.766 35.6213 101.882 35.4774C103.069 35.325 104.123 34.861 105.116 34.248C107.136 33 108.702 31.3252 110.057 29.4354C110.591 28.6903 110.811 27.9351 110.799 27.0309C110.78 25.7761 110.957 24.5247 111.157 23.2817C111.17 23.2022 111.193 23.1226 111.214 23.0447C111.328 22.6535 111.562 22.3622 111.999 22.3047C112.446 22.2454 112.806 22.4266 113.054 22.7839C113.272 23.0972 113.355 23.4511 113.291 23.8287C113.021 25.456 112.927 27.0969 113.015 28.7412C113.089 30.1365 113.138 31.5538 113.762 32.8509C114.748 34.8982 116.408 36.026 118.779 36.1191C120.805 36.197 122.521 35.435 124.052 34.2429C125.974 32.746 127.458 30.8833 128.736 28.8597C128.862 28.6599 128.866 28.4346 128.906 28.2179C129.208 26.5601 129.73 24.9887 130.808 23.6306C131.175 23.1666 131.604 22.767 132.098 22.4317C132.574 22.1082 133.005 22.1269 133.45 22.4926C133.53 22.5604 133.597 22.6298 133.724 22.5942C134.502 22.3758 135.148 22.6501 135.742 23.1073C136.436 23.6424 136.949 24.3215 137.371 25.0649C138.225 26.5703 138.591 28.206 138.728 29.9011C138.795 30.7139 138.765 31.5217 138.672 32.3277C138.647 32.5411 138.807 32.6088 138.949 32.6884C139.809 33.1676 140.744 33.4352 141.712 33.6045C144.37 34.0685 146.627 33.2878 148.592 31.5657C149.977 30.3515 151.005 28.8953 151.838 27.2967C151.886 27.2053 151.929 27.1138 151.98 27.0258C152.186 26.6634 152.476 26.4128 152.93 26.4314C153.383 26.4483 153.691 26.6922 153.889 27.0732C153.928 27.146 153.963 27.2188 154 27.2916C154 27.5558 154 27.82 154 28.0824C153.62 28.7378 153.293 29.4185 152.886 30.0603C151.805 31.7638 150.509 33.2828 148.81 34.4546C147.201 35.562 145.419 36.1818 143.433 36.258C141.635 36.3274 139.941 35.982 138.366 35.1353C138.118 35.0015 138.018 35.0269 137.911 35.2843C137.427 36.4443 136.685 37.4095 135.536 38.0377C134.416 38.649 133.246 38.8387 132.019 38.3679C131.182 38.0462 130.608 37.4298 130.133 36.7169C129.418 35.6467 129.057 34.4563 128.852 33.2133C128.838 33.1236 128.892 32.9796 128.755 32.9559C128.655 32.939 128.614 33.0626 128.558 33.132C127.205 34.8017 125.635 36.2394 123.753 37.3502C122.099 38.3273 120.318 38.8251 118.369 38.6812C116.74 38.561 115.325 37.9395 114.068 36.9489C112.506 35.7178 111.653 34.0905 111.219 32.2278C111.2 32.1448 111.231 32.0195 111.11 32.0026C111.019 31.9907 110.987 32.1025 110.939 32.1634C109.623 33.8331 108.094 35.2877 106.247 36.4138C105.013 37.1673 103.728 37.8125 102.257 38.0259C100.453 38.2866 98.8416 37.5517 97.8767 36.0395C97.1895 34.9643 96.845 33.7789 96.6832 32.5411C96.4495 30.7579 96.4425 28.963 96.4161 27.168C96.4073 26.5618 96.3827 25.9522 96.2368 25.3561C96.1647 25.0581 96.0593 24.7719 95.8923 24.5094C95.6708 24.164 95.409 24.0946 95.0399 24.2944C94.6831 24.4874 94.4229 24.777 94.1962 25.1004C93.6671 25.8574 93.5107 26.7294 93.3578 27.5998C92.9922 29.6911 92.7707 31.796 92.7057 33.9178C92.6811 34.7374 92.6301 35.5569 92.5879 36.3782C92.5792 36.5611 92.5352 36.7406 92.4561 36.9082C92.2575 37.3333 91.8831 37.5534 91.398 37.5314C90.9709 37.5128 90.6598 37.2808 90.5139 36.827C90.2731 36.0768 90.187 35.2996 90.1114 34.5223C90.0464 33.8568 90.013 33.1896 89.9638 32.4903C89.7089 32.6816 89.5525 32.9305 89.3592 33.1456C87.4697 35.2488 85.248 36.9167 82.5448 37.948C80.8047 38.6118 78.9926 39.0199 77.1242 38.9572C75.2541 38.8963 73.4156 38.5677 71.7599 37.6449C70.0936 36.7152 69.134 35.2877 68.6822 33.5131C68.6436 33.3606 68.6383 33.1388 68.3975 33.3928C66.4465 35.452 64.0509 36.8998 61.4531 38.0665C60.699 38.4052 59.9591 38.771 59.205 39.1079C58.9783 39.2095 58.901 39.3433 58.9045 39.577C58.9168 40.2967 58.9238 41.018 58.9062 41.7377C58.8254 44.9636 58.4967 48.1539 57.3384 51.2155C56.7725 52.7158 56.1485 54.189 55.1273 55.4692C54.6861 56.0212 54.1729 56.492 53.4997 56.7849C53.2255 56.9035 52.9285 56.9153 52.649 57C52.5858 57 52.5225 57 52.4592 57C52.3889 56.9848 52.3186 56.9611 52.2465 56.9543C51.6454 56.8933 51.1005 56.6969 50.6312 56.3244C49.9563 55.7876 49.647 55.0459 49.422 54.2669C48.9281 52.5566 49.0318 50.8328 49.3288 49.1106C49.7735 46.5232 50.7578 44.1338 52.2289 41.9325C53.345 40.2611 54.6633 38.7726 56.4701 37.7532C56.6617 37.6449 56.6846 37.5026 56.6758 37.3214C56.6318 36.319 56.5932 35.3165 56.5475 34.314C56.5299 33.9245 56.4983 33.5351 56.4684 33.0897C56.3752 33.2726 56.3067 33.4064 56.2399 33.5401C55.7003 34.612 55.0974 35.6399 54.1747 36.4646C52.7703 37.7194 50.8527 37.8565 49.3482 36.7863C48.4535 36.1496 47.9473 35.2657 47.6556 34.253C47.6257 34.1498 47.6327 34.0312 47.5378 33.9516C47.4306 33.9753 47.3831 34.06 47.3181 34.1227C46.6766 34.756 45.9893 35.3385 45.2493 35.8584C43.8696 36.8287 42.4002 37.6296 40.7094 37.9784C39.4052 38.2477 38.1889 38.0428 37.1255 37.2435C36.1219 36.4917 35.5788 35.4435 35.2062 34.3005C34.6736 32.663 34.6613 30.9628 34.5875 29.2746C34.5435 28.2619 34.5717 27.2476 34.5049 26.235C34.4697 25.6948 34.3695 25.1682 34.1235 24.6754C33.8528 24.1369 33.5153 24.0522 33.0144 24.396C32.8246 24.5264 32.6594 24.6805 32.5152 24.8566C32.0125 25.473 31.7717 26.1909 31.6188 26.9445C31.1038 29.4879 30.8929 32.0618 30.798 34.6476C30.7734 35.3165 30.7857 35.9887 30.6679 36.6475C30.5642 37.23 30.1407 37.5399 29.5975 37.5348C29.0755 37.5314 28.7205 37.2418 28.5904 36.6593C28.4744 36.1445 28.3865 35.623 28.3145 35.1014C28.2354 34.5308 28.1914 33.955 28.1317 33.3827C28.1246 32.1685 28.1246 30.9713 28.1246 29.7741ZM51.2552 51.6693C51.271 52.3924 51.3273 53.1595 51.6507 53.8825C51.902 54.4447 52.3414 54.5683 52.8775 54.2517C53.331 53.9841 53.6491 53.593 53.9163 53.1645C54.5965 52.0723 55.1062 50.9039 55.5157 49.6965C56.326 47.3038 56.6283 44.8349 56.6863 42.3287C56.6986 41.8021 56.718 41.2754 56.7303 40.7488C56.732 40.6827 56.7602 40.593 56.6758 40.5574C56.5949 40.5236 56.544 40.6015 56.4895 40.6438C56.3278 40.7742 56.1678 40.9046 56.0132 41.0434C54.4699 42.4354 53.4101 44.1406 52.577 45.9881C51.7684 47.783 51.2904 49.6525 51.2552 51.6693ZM130.857 30.8375C130.861 31.3235 130.866 31.8095 130.938 32.2938C131.068 33.1896 131.216 34.082 131.692 34.8813C132 35.3978 132.362 35.8888 133.01 36.0294C133.726 36.1852 134.36 35.9718 134.912 35.5231C135.466 35.0726 135.814 34.4901 136.072 33.8466C136.153 33.6451 136.112 33.5164 135.96 33.3657C135.269 32.6816 134.643 31.9467 134.112 31.1373C133.126 29.6319 132.497 28.0045 132.307 26.2265C132.29 26.0555 132.402 25.7845 132.205 25.7422C132.061 25.7117 131.975 25.9962 131.898 26.1554C131.173 27.6371 130.845 29.2017 130.857 30.8375ZM73.1185 27.0122C73.101 27.5202 73.1572 27.9995 73.3751 28.4533C73.5808 28.8834 73.8708 29.2356 74.3928 29.2559C74.8832 29.2746 75.2224 28.963 75.4544 28.5887C76.0028 27.7048 76.1417 26.7447 75.8886 25.7473C75.7392 25.1614 75.2365 24.8075 74.6477 24.799C73.9991 24.7905 73.4455 25.1732 73.2732 25.7642C73.1502 26.1774 73.0957 26.599 73.1185 27.0122ZM136.506 30.4616C136.561 29.7453 136.432 29.0578 136.271 28.3788C136.011 27.2899 135.592 26.2688 134.782 25.4357C134.713 25.3663 134.647 25.2393 134.536 25.2782C134.418 25.3206 134.469 25.4577 134.471 25.5525C134.495 26.6803 134.868 27.7201 135.353 28.7276C135.655 29.3541 136.023 29.9417 136.506 30.4616Z" fill="#044983"/>
<path d="M114.052 13.8446C115.256 14.3086 115.641 15.9816 114.759 16.9181C114.189 17.5209 113.195 17.4701 112.694 16.8114C112.233 16.2052 112.193 15.1739 112.586 14.527C112.796 14.1833 113.114 13.9868 113.483 13.8446C113.673 13.8446 113.862 13.8446 114.052 13.8446Z" fill="#044983"/>
<path d="M9.15967 16.405C9.71157 15.941 10.3162 15.5414 11.0245 15.2467C11.3813 15.1096 11.7715 14.9961 12.2355 15.0164C12.4658 15.0367 12.7207 15.0858 12.9491 15.2332C13.1829 15.3653 13.3587 15.5702 13.4782 15.77C13.7172 16.1696 13.7911 16.5811 13.8702 16.8927C13.886 16.9604 13.9159 17.0434 13.9123 17.0197C13.9088 17.0112 13.9035 16.9926 13.8719 16.9502C13.8631 16.9384 13.8227 16.8927 13.7928 16.8724C13.7489 16.8368 13.6944 16.8097 13.6294 16.7894C13.5608 16.7691 13.4958 16.764 13.4378 16.7674C13.3815 16.7674 13.3024 16.7978 13.2813 16.8046C13.2479 16.8165 13.2163 16.8351 13.1882 16.8554C13.1689 16.869 13.1636 16.8724 13.1513 16.8825C13.1267 16.9079 13.1284 16.9045 13.1249 16.9079C13.1196 16.9147 13.1249 16.9045 13.1284 16.8978C13.1337 16.8893 13.146 16.8571 13.1565 16.8334C13.1794 16.7758 13.2022 16.7098 13.2251 16.6353C13.3165 16.3406 13.4044 16.007 13.494 15.6701C13.5907 15.3297 13.6838 14.991 13.8368 14.6117C13.8807 14.5135 13.9211 14.4187 13.9897 14.3052C14.0037 14.2781 14.0231 14.2493 14.0459 14.2172C14.0705 14.185 14.0828 14.1596 14.118 14.1189C14.176 14.0512 14.2463 13.9665 14.3992 13.8768C14.4414 13.8531 14.4836 13.8328 14.5293 13.8158C14.575 13.7972 14.6453 13.782 14.705 13.7735C14.8281 13.7532 14.9581 13.7718 15.0794 13.8091C15.1814 13.8446 15.264 13.8971 15.3325 13.9479C15.3817 13.9885 15.4345 14.0394 15.4696 14.0817C15.6014 14.2442 15.6419 14.3526 15.6946 14.4661C15.8545 14.8843 15.9196 15.2247 15.9899 15.5769L16.1727 16.5929C16.2025 16.7555 16.2359 16.9164 16.2711 17.0637C16.2887 17.1348 16.308 17.2059 16.3273 17.2618C16.3414 17.3211 16.3748 17.3651 16.3432 17.3397L16.3256 17.3296C16.3115 17.3177 16.2957 17.3075 16.2799 17.3008C16.257 17.2923 16.1815 17.2567 16.1217 17.2618C16.0654 17.2534 15.9881 17.2737 15.953 17.2923C15.9266 17.2991 15.8932 17.3296 15.8862 17.3363C15.8827 17.3397 15.8791 17.3431 15.8791 17.3499C15.8809 17.3516 15.8897 17.3397 15.895 17.3363C15.9073 17.3313 15.9248 17.3008 15.9424 17.2788C16.0127 17.1755 16.0865 17.0332 16.1533 16.8842C16.2869 16.5879 16.4064 16.2644 16.5242 15.9427C16.7667 15.2958 16.9794 14.632 17.2396 13.9733C17.2677 14.6794 17.2237 15.3754 17.1534 16.0799C17.1112 16.4321 17.062 16.7826 16.9741 17.1433C16.932 17.3245 16.8775 17.5057 16.7861 17.7106C16.7597 17.7631 16.7386 17.8122 16.6964 17.8748C16.6753 17.9053 16.6613 17.9324 16.6332 17.9663C16.6015 18.0018 16.5664 18.0374 16.5312 18.0713C16.4926 18.1068 16.4152 18.1542 16.3519 18.1847C16.2781 18.2186 16.1533 18.244 16.0531 18.2389C15.9494 18.2321 15.8264 18.1949 15.7684 18.1576C15.7333 18.1373 15.6981 18.117 15.6665 18.0933C15.6419 18.0729 15.6225 18.056 15.6014 18.0374C15.4485 17.8833 15.3975 17.7715 15.3448 17.6716C15.2921 17.5683 15.2552 17.4752 15.2183 17.3821C15.148 17.1975 15.0952 17.0231 15.0443 16.8486C14.9406 16.5032 14.8615 16.1628 14.7736 15.836C14.6892 15.5143 14.6013 15.1756 14.4976 14.9487C14.4765 14.9047 14.4449 14.8522 14.4625 14.881C14.4695 14.8911 14.4888 14.9131 14.5064 14.9233C14.5381 14.9504 14.5838 14.9792 14.6453 14.9978C14.7226 15.0283 14.8087 15.03 14.8861 15.0232C14.9247 15.0198 14.9704 15.0046 14.9968 14.9944C15.0214 14.9876 15.0443 14.9775 15.0671 14.9639C15.1427 14.9182 15.1497 14.8996 15.1532 14.8996C15.1567 14.8911 15.1497 14.9064 15.148 14.908C15.1444 14.9114 15.1409 14.9182 15.1339 14.9301C15.1128 14.9656 15.0847 15.03 15.0566 15.0909C14.9423 15.3551 14.8456 15.6836 14.7455 16.0087C14.6382 16.3372 14.5451 16.6725 14.4027 17.0315C14.3676 17.1213 14.3254 17.2161 14.2762 17.316C14.2463 17.3702 14.2252 17.4176 14.183 17.4837C14.1637 17.5141 14.1461 17.5429 14.1145 17.5836C14.0846 17.6208 14.0617 17.6547 14.002 17.7089C13.9739 17.7343 13.9545 17.7529 13.9158 17.78C13.8684 17.8122 13.8174 17.841 13.7647 17.863C13.7243 17.885 13.6223 17.9104 13.545 17.9155C13.4641 17.9239 13.378 17.9172 13.2866 17.8901C13.1987 17.8664 13.1267 17.824 13.0634 17.7783C13.0177 17.7427 12.9579 17.6852 12.9368 17.6547C12.8771 17.5768 12.8507 17.5209 12.8296 17.4718C12.7576 17.2872 12.7558 17.1992 12.7365 17.0976C12.6873 16.7318 12.6591 16.4439 12.5677 16.2255C12.4781 16.0121 12.3762 15.9139 12.1231 15.836C11.87 15.775 11.5395 15.7869 11.2091 15.8377C10.5306 15.9427 9.85042 16.1832 9.15967 16.405Z" fill="#044983"/>
<path d="M19.1589 45.4648C17.6649 45.4699 16.1709 45.4462 14.6769 45.4089C13.9299 45.3869 13.1812 45.3547 12.4324 45.309C11.6801 45.2565 10.9402 45.2142 10.158 45.0652C10.0578 45.0448 9.9594 45.0211 9.84867 44.9856C9.7977 44.972 9.73091 44.9416 9.67115 44.9145C9.63248 44.8924 9.59557 44.8704 9.55866 44.8467C9.53757 44.8315 9.50593 44.801 9.48308 44.7773C9.45496 44.7434 9.43914 44.7383 9.40926 44.6791C9.3495 44.5673 9.33368 44.4335 9.38641 44.3031C9.4075 44.2591 9.43211 44.2168 9.46375 44.1778C9.4866 44.1507 9.50945 44.1304 9.53405 44.1084C9.62194 44.0373 9.68521 44.0068 9.74321 43.978C9.86098 43.9238 9.9594 43.89 10.0596 43.8595C10.4533 43.7393 10.8224 43.6715 11.1968 43.6004C11.942 43.4632 12.6802 43.3515 13.4184 43.2363C14.1549 43.1212 14.8896 43.0077 15.6155 42.8807C16.3379 42.752 17.0673 42.6149 17.7247 42.4201C17.8864 42.371 18.0428 42.3168 18.1676 42.2593C18.2309 42.2322 18.2836 42.2017 18.3064 42.1848C18.3135 42.1797 18.3188 42.1763 18.317 42.1763C18.317 42.1763 18.3205 42.1746 18.3082 42.1831C18.3029 42.1881 18.2941 42.1966 18.2748 42.2203C18.266 42.2356 18.2379 42.2728 18.2256 42.3151C18.1869 42.4015 18.1957 42.5454 18.2238 42.6149C18.2291 42.6335 18.2414 42.6538 18.2484 42.6674C18.252 42.6775 18.2572 42.6877 18.2643 42.6961L18.2871 42.7266C18.2994 42.7419 18.2643 42.7131 18.2151 42.6894C18.1131 42.6369 17.9602 42.5776 17.8073 42.5268C17.1728 42.3202 16.4469 42.1729 15.7333 42.0357C14.292 41.7631 12.8226 41.5497 11.3409 41.3059C10.97 41.2449 10.5974 41.1806 10.2195 41.1095C9.83812 41.0367 9.46726 40.9655 9.04367 40.8402C8.93645 40.8081 8.82397 40.7725 8.68335 40.7132C8.6482 40.698 8.61305 40.6827 8.56735 40.659L8.50231 40.6252C8.47947 40.6116 8.44431 40.5896 8.41619 40.571C8.38104 40.5456 8.37049 40.5439 8.31776 40.4999C8.27382 40.4626 8.23164 40.4237 8.19297 40.3813C8.13497 40.3153 8.06818 40.2154 8.02599 40.1239C7.97151 40.0088 7.93108 39.8022 7.95217 39.6498C7.96448 39.4991 8.05236 39.2993 8.12091 39.2146C8.17715 39.135 8.258 39.0537 8.32479 39.0012C8.40916 38.9369 8.52516 38.8725 8.56911 38.8556L8.66226 38.8167L8.73081 38.7929C8.77827 38.776 8.82045 38.7642 8.85384 38.7557C9.005 38.7151 9.11573 38.6964 9.22998 38.6778C9.66763 38.6118 10.049 38.5847 10.4357 38.5593C11.9666 38.4678 13.4501 38.4407 14.93 38.3747C15.6682 38.3425 16.4029 38.3036 17.12 38.2443C17.4768 38.2138 17.8319 38.1783 18.1676 38.1292C18.3346 38.1054 18.4998 38.0784 18.6492 38.0462C18.7951 38.0157 18.941 37.9767 19.0113 37.9463C19.0482 37.9344 19.057 37.9175 18.9937 37.9581C18.9603 37.9835 18.8988 38.0225 18.8126 38.1461C18.7898 38.1783 18.7705 38.2138 18.7564 38.2477C18.7371 38.2866 18.716 38.3391 18.7037 38.3865C18.6808 38.4797 18.6633 38.6016 18.6791 38.715C18.6861 38.7709 18.6949 38.8251 18.7125 38.8776C18.7318 38.9335 18.7529 38.9792 18.7687 39.0131C18.788 39.0503 18.8091 39.0859 18.8355 39.1181C18.8531 39.1435 18.8654 39.1604 18.8847 39.1807C18.9269 39.2248 18.941 39.2383 18.962 39.2552L18.999 39.2823C19.0218 39.2993 18.9937 39.2789 18.941 39.262C18.73 39.1824 18.3662 39.0944 18.0252 39.0199C17.3239 38.8658 16.5769 38.7168 15.8334 38.544C14.343 38.1986 12.8279 37.7668 11.3655 37.0962C9.91195 36.429 8.47947 35.4943 7.40555 34.1548C7.13839 33.8212 6.89759 33.4673 6.68667 33.0948C6.49157 32.7155 6.28944 32.3345 6.15938 31.9314C5.86761 31.1339 5.72173 30.3109 5.64263 29.5455C5.56354 28.775 5.53717 28.0638 5.46335 27.3983C5.39305 26.7345 5.27704 26.1198 5.08722 25.5407C4.89915 24.9615 4.60914 24.4248 4.27694 23.8998C4.0836 23.6475 3.92014 23.3867 3.70219 23.1378C3.49128 22.8855 3.25224 22.6247 2.99914 22.3385C2.48766 21.7679 1.95861 21.077 1.56314 20.3607C1.16064 19.6478 0.847781 18.9078 0.601711 18.1424C0.355641 17.3787 0.193937 16.5946 0.100782 15.8089C0.0533253 15.4161 0.0252039 15.0215 0.0111428 14.632C-0.00116071 14.2341 -0.00291852 13.8819 0.00411206 13.4907C0.0322343 11.943 0.280061 10.3715 0.81087 8.87459C1.071 8.12443 1.41023 7.39628 1.81624 6.7037C2.21347 6.00603 2.69155 5.3507 3.22411 4.74278C4.28573 3.52187 5.60045 2.50246 7.04523 1.76077C7.76235 1.37637 8.52165 1.08512 9.28447 0.822646C10.0543 0.583882 10.8347 0.382369 11.6274 0.248593C12.4183 0.116511 13.2163 0.0318436 14.0248 0.00644319C14.227 0.0013631 14.4308 -0.00202343 14.6365 0.0013633C14.8456 0.00305667 15.0583 0.0149108 15.2605 0.0284577C15.6665 0.0589383 16.0672 0.101272 16.4627 0.16054C18.0463 0.390837 19.5878 0.84127 21.0449 1.4966C22.4949 2.16379 23.8378 3.07482 24.9732 4.18228C27.2634 6.39043 28.6256 9.39276 28.8839 12.4323C28.949 13.1927 28.9578 13.9615 28.8787 14.7302C28.8031 15.4923 28.659 16.239 28.4568 16.9723C28.2565 17.7038 27.9963 18.4201 27.6764 19.1093C27.3548 19.7985 26.9927 20.4657 26.5269 21.099C26.0735 21.7374 25.4741 22.303 24.9152 22.7737C24.358 23.2462 23.8694 23.7102 23.4335 24.2571C22.5529 25.3205 22.0379 26.6261 21.6811 27.9961C21.3138 29.3643 21.1433 30.7986 20.7636 32.2159C20.6617 32.5681 20.5422 32.9204 20.3805 33.2573C20.217 33.5926 20.0061 33.9194 19.7126 34.1735C19.4173 34.4224 19.0447 34.59 18.6597 34.6171C18.2748 34.6442 17.8987 34.5545 17.5542 34.4207C17.911 34.5223 18.2889 34.5748 18.6457 34.5138C19.0025 34.4562 19.3259 34.2734 19.5702 34.0312C20.0518 33.5215 20.2381 32.8154 20.3752 32.1296C20.6336 30.7376 20.6986 29.2915 20.9675 27.8504C21.0976 27.1291 21.2734 26.406 21.5388 25.6999C21.7954 24.9954 22.168 24.3011 22.6074 23.6814C23.0415 23.0565 23.5847 22.4757 24.119 21.9677C24.648 21.4597 25.0945 20.9821 25.4513 20.4098C25.8133 19.8459 26.1227 19.2227 26.3793 18.5877C26.6377 17.9527 26.8398 17.2974 26.9857 16.6302C27.1351 15.9647 27.23 15.2891 27.2616 14.6168C27.2968 13.9513 27.2546 13.2773 27.165 12.6085C26.9716 11.2741 26.5867 9.96512 25.968 8.77468C25.3634 7.57747 24.525 6.50049 23.5319 5.59623C21.5475 3.77417 18.8742 2.71921 16.1358 2.36191C15.793 2.31789 15.4503 2.2891 15.1128 2.27047C14.9423 2.2637 14.7824 2.25692 14.6189 2.25862C14.4519 2.25862 14.2814 2.26539 14.1127 2.27217C13.4307 2.30773 12.7435 2.39409 12.0668 2.52109C11.3901 2.64809 10.731 2.83605 10.086 3.04772C9.45144 3.28479 8.82221 3.53541 8.24394 3.86562C7.07511 4.50571 6.02755 5.32191 5.18564 6.31591C4.76205 6.80868 4.3824 7.33871 4.06954 7.90599C3.74789 8.46818 3.47897 9.05917 3.27333 9.67555C2.84798 10.9032 2.63882 12.2071 2.62124 13.5313C2.61773 13.8599 2.61948 14.2256 2.63179 14.5474C2.64409 14.8759 2.6687 15.1993 2.70912 15.5193C2.78822 16.1611 2.9218 16.7911 3.11866 17.4007C3.312 18.0086 3.56334 18.608 3.87268 19.1584C4.18027 19.7121 4.53707 20.1896 4.99582 20.7078C5.22607 20.9703 5.48093 21.2497 5.73754 21.5562C5.99943 21.8593 6.23144 22.2098 6.474 22.5417C6.91868 23.2394 7.31767 23.9896 7.56549 24.7888C7.81684 25.583 7.95217 26.3924 8.02599 27.1578C8.10157 27.9232 8.11915 28.6497 8.18243 29.3101C8.24394 29.9739 8.35292 30.5784 8.54977 31.1389C8.59899 31.2795 8.64293 31.4217 8.71323 31.5521C8.77827 31.6859 8.831 31.8248 8.90306 31.9551C9.04367 32.2176 9.20713 32.4682 9.38993 32.7087C10.1229 33.6705 11.2021 34.4376 12.4201 35.0252C13.6417 35.6179 14.995 36.0412 16.3959 36.3935C17.0989 36.5713 17.8108 36.727 18.5613 36.9082C18.7494 36.954 18.941 37.0031 19.1396 37.0572C19.3399 37.1148 19.5438 37.1741 19.7917 37.2723C19.9129 37.3214 20.0518 37.3807 20.2328 37.4941C20.2803 37.5246 20.3207 37.55 20.3822 37.6008C20.4385 37.6465 20.4894 37.6872 20.5597 37.7668C20.5931 37.804 20.6213 37.8379 20.6529 37.8802C20.6898 37.9327 20.7232 37.9869 20.7548 38.0445C20.7847 38.097 20.8128 38.163 20.8375 38.2409C20.8603 38.3154 20.8796 38.3916 20.8884 38.4695C20.9042 38.6287 20.8937 38.7963 20.8515 38.9318C20.8322 39.0012 20.8058 39.0757 20.7777 39.135C20.7496 39.1892 20.7197 39.2434 20.6845 39.2959C20.5492 39.4957 20.4156 39.5956 20.3084 39.6735C20.094 39.8174 19.9323 39.8784 19.7952 39.9292C19.5157 40.0257 19.296 40.0664 19.0763 40.107C18.8601 40.1443 18.6545 40.1713 18.4523 40.1934C18.0481 40.2374 17.6596 40.2628 17.273 40.2848C16.5013 40.3237 15.7456 40.3373 14.9915 40.3458C13.4887 40.3627 11.9877 40.3424 10.5359 40.3813C10.1791 40.3932 9.81352 40.4101 9.51296 40.4457C9.44265 40.4541 9.37059 40.466 9.34071 40.4728C9.32841 40.4745 9.32665 40.4761 9.33017 40.4745C9.33017 40.4745 9.33016 40.4728 9.33192 40.4728C9.34247 40.4694 9.35126 40.466 9.36005 40.4609C9.36005 40.4609 9.43914 40.422 9.48484 40.3813C9.53581 40.3441 9.60084 40.2797 9.64127 40.2171C9.694 40.1493 9.77837 39.9732 9.78364 39.8428C9.80649 39.7124 9.76782 39.5296 9.72212 39.4347C9.694 39.3619 9.63775 39.2823 9.59381 39.2349C9.57096 39.2078 9.54636 39.1841 9.51999 39.1621L9.47781 39.1299L9.44969 39.1147L9.44617 39.113C9.43914 39.1113 9.44793 39.1147 9.45496 39.1181C9.48308 39.1316 9.54811 39.1587 9.61666 39.1807C9.90316 39.2756 10.26 39.3636 10.608 39.4466C10.9595 39.5296 11.3181 39.6075 11.6801 39.6854C13.1267 39.9935 14.5961 40.2746 16.069 40.6235C16.8089 40.8047 17.5401 40.9808 18.3082 41.2686C18.5033 41.3448 18.6966 41.4244 18.9181 41.5514C19.0288 41.6175 19.1484 41.692 19.2907 41.8376C19.3276 41.8783 19.3593 41.9104 19.4015 41.9731C19.4208 42.0019 19.4384 42.0307 19.4559 42.0594C19.4735 42.0916 19.4911 42.1357 19.5069 42.1746C19.5386 42.2474 19.5561 42.3507 19.5596 42.4506C19.5614 42.5454 19.5421 42.6555 19.5104 42.7385C19.4788 42.8215 19.4366 42.901 19.3962 42.9518C19.3522 43.0145 19.3118 43.0568 19.2732 43.0924C19.231 43.1347 19.1958 43.1601 19.1589 43.1889C19.1202 43.2194 19.0868 43.2397 19.0552 43.2583C18.9216 43.3396 18.8074 43.3887 18.6984 43.4311C18.4805 43.514 18.2801 43.5682 18.0815 43.6156C17.2976 43.7968 16.5506 43.8883 15.8 43.9797C15.0513 44.0678 14.3043 44.1389 13.5626 44.21C12.8208 44.2811 12.0791 44.3506 11.3515 44.4403C10.9894 44.486 10.622 44.5385 10.2969 44.6113C10.2178 44.63 10.1387 44.652 10.086 44.6706C10.0613 44.6791 10.0403 44.6909 10.0561 44.6774C10.0631 44.6706 10.0684 44.6655 10.0754 44.6554C10.093 44.6367 10.107 44.613 10.1158 44.5876C10.151 44.5013 10.1457 44.4115 10.1053 44.3421C10.0807 44.3048 10.0877 44.3116 10.0736 44.2964C10.0666 44.2879 10.049 44.2761 10.0455 44.2744C10.0473 44.2744 10.049 44.2761 10.049 44.2795C10.0736 44.2896 10.0895 44.3032 10.1264 44.3167C10.1897 44.3438 10.2705 44.3692 10.3514 44.3929C11.0228 44.5724 11.7733 44.674 12.5027 44.7756C13.2374 44.8738 13.9774 44.9551 14.7191 45.0347C16.1867 45.1922 17.6737 45.3226 19.1589 45.4648Z" fill="#044983"/>
<path d="M63.4638 40.4288H64.3074L64.3127 40.4355V48.4011H68.1461V49.2444H63.4638L63.4585 49.2376V40.4338L63.4638 40.4288Z" fill="#FF0000"/>
<path d="M74.2152 43.4633C75.0185 43.4633 75.6582 43.7884 76.1346 44.4386L76.1522 44.4742H76.1574V43.5344L76.1697 43.5158H76.9958L77.0134 43.5344V49.2241L76.9958 49.2427H76.1697L76.1574 49.2241V48.2961H76.1522C75.7127 48.9633 75.0483 49.2952 74.159 49.2952V49.2884L74.1467 49.2952C73.3557 49.2952 72.6632 48.9819 72.0674 48.3554C71.57 47.7695 71.3221 47.1226 71.3221 46.4165V46.3437C71.3221 45.5884 71.5981 44.9145 72.1482 44.3201C72.7265 43.7511 73.4155 43.4633 74.2152 43.4633ZM72.1781 46.3606V46.3911C72.1781 47.0617 72.4506 47.6171 72.9972 48.0591C73.3399 48.3198 73.7213 48.4502 74.1396 48.4502C75.0237 48.4502 75.6354 48.0235 75.9729 47.1683C76.0625 46.9194 76.1082 46.6705 76.1082 46.4216V46.2895C76.1082 45.9406 75.9957 45.5749 75.7725 45.1939C75.3893 44.6114 74.8779 44.3201 74.2381 44.3201C73.3733 44.3201 72.7458 44.7214 72.3556 45.5241C72.2379 45.8086 72.1781 46.088 72.1781 46.3606Z" fill="#FF0000"/>
<path d="M83.877 43.5242H83.9807C85.1249 43.5242 85.8965 43.956 86.292 44.818C86.3939 45.0754 86.4449 45.3446 86.4449 45.6257V49.2258L86.4273 49.2444H85.6012L85.5889 49.2258V45.6257C85.5889 45.0347 85.2813 44.6419 84.6661 44.4454C84.5238 44.3929 84.2443 44.3675 83.8277 44.3675C83.318 44.3675 82.9366 44.4725 82.6853 44.6808C82.3794 44.8772 82.2265 45.2091 82.2265 45.6748V49.2275L82.209 49.2461H81.3899L81.3723 49.2275V43.6275L81.3899 43.6089H82.209L82.2265 43.6275V44.188C82.6747 43.7444 83.2249 43.5242 83.877 43.5242Z" fill="#FF0000"/>
<path d="M92.8726 43.4819C93.3647 43.4819 93.82 43.6208 94.2365 43.8968C94.3262 43.8003 94.3947 43.7359 94.4439 43.7037C94.5898 43.6072 94.7269 43.548 94.8534 43.5226C94.9589 43.4938 95.0608 43.4802 95.1593 43.4802H95.3491L95.3561 43.487V44.3184L95.3491 44.3252H95.1962C95.0696 44.3252 94.9712 44.3608 94.9027 44.4336C94.8693 44.4742 94.8534 44.5098 94.8534 44.542C94.922 44.647 94.9888 44.7824 95.0485 44.9518C95.1224 45.1719 95.1593 45.3937 95.1593 45.6139C95.1593 46.1557 94.9589 46.6367 94.5599 47.0583C94.3929 47.2141 94.2681 47.3157 94.1873 47.3597C94.0695 47.4393 93.9324 47.5121 93.7778 47.5765C93.4877 47.6882 93.1942 47.7458 92.8972 47.7458H92.8603C92.514 47.7458 92.173 47.6696 91.8391 47.5172C91.7617 47.6103 91.7231 47.7086 91.7231 47.8119C91.7231 47.9084 91.753 47.9676 91.8145 47.993C91.9779 48.1048 92.3523 48.1624 92.9394 48.1624L93.3665 48.1556C94.1609 48.1556 94.7761 48.3385 95.212 48.7043C95.3263 48.8126 95.4053 48.8973 95.451 48.9566C95.6514 49.2411 95.7516 49.5442 95.7516 49.8659C95.7516 50.1876 95.6461 50.5026 95.4335 50.8108C95.3843 50.887 95.2911 50.992 95.1522 51.1241C95.0064 51.2528 94.8868 51.3425 94.7972 51.395C94.683 51.4678 94.5582 51.5322 94.4246 51.588C94.2541 51.6558 94.0906 51.71 93.936 51.7506C93.6547 51.8116 93.4087 51.8404 93.196 51.8404H92.9886C92.63 51.8404 92.2574 51.7777 91.869 51.6541C91.6774 51.5813 91.5069 51.5017 91.3557 51.4136C91.2503 51.3493 91.136 51.2646 91.013 51.1613C90.9023 51.0529 90.8232 50.9666 90.7739 50.9022C90.549 50.5924 90.4382 50.2808 90.4382 49.9624V49.8964C90.4382 49.5713 90.5701 49.2326 90.8355 48.8787C90.9374 48.7584 91.0376 48.6636 91.1343 48.5959L91.1712 48.5654C90.9673 48.3724 90.8653 48.1234 90.8653 47.8186V47.8C90.8653 47.5223 90.955 47.2666 91.1343 47.0295C91.1431 47.0211 91.1466 47.0143 91.1466 47.0058C91.0569 46.9093 90.9778 46.8077 90.9075 46.6993C90.7001 46.3589 90.5964 45.9966 90.5964 45.6156C90.5964 45.094 90.7845 44.6266 91.1589 44.2118C91.2977 44.0712 91.3891 43.9865 91.4331 43.9594C91.5596 43.868 91.6914 43.7867 91.8303 43.719C92.1713 43.5598 92.5175 43.4819 92.8726 43.4819ZM91.296 49.9252V49.937C91.296 50.1944 91.4383 50.4281 91.7231 50.6415C92.0816 50.8785 92.5386 50.9971 93.0923 50.9971C93.5985 50.9971 94.0309 50.8802 94.3947 50.6482C94.4597 50.6076 94.5388 50.5399 94.6337 50.4433C94.8095 50.2503 94.8974 50.0606 94.8974 49.871V49.8524C94.8974 49.6678 94.8183 49.4984 94.6583 49.346C94.5353 49.2377 94.3754 49.153 94.175 49.0937C93.9219 49.0294 93.6793 48.9972 93.4473 48.9972H92.8673C92.5615 48.9972 92.2908 48.9786 92.0535 48.943C91.9516 49.004 91.8215 49.1039 91.6616 49.2444C91.4172 49.4934 91.296 49.7203 91.296 49.9252ZM91.4542 45.5902V45.6443C91.4542 45.8967 91.5473 46.1439 91.7354 46.3843C91.8338 46.4927 91.9094 46.5655 91.9621 46.6011C92.2346 46.8026 92.5421 46.9025 92.8849 46.9025C93.2557 46.9025 93.5862 46.7806 93.8744 46.5351C94.1592 46.2709 94.3015 45.9627 94.3015 45.6139C94.3015 45.2887 94.1732 44.9958 93.9166 44.735C93.783 44.6114 93.6389 44.5166 93.4895 44.4522C93.2891 44.3675 93.0905 44.3252 92.8902 44.3252H92.8603C92.5914 44.3252 92.333 44.398 92.0834 44.542C92.0096 44.5826 91.9164 44.6588 91.8022 44.7706C91.6844 44.8993 91.6018 45.0195 91.5579 45.1313C91.4893 45.2887 91.4542 45.4411 91.4542 45.5902Z" fill="#FF0000"/>
<path d="M99.8891 43.5242H100.708L100.726 43.5429V47.1429C100.726 47.7695 101.069 48.1708 101.752 48.3469C101.888 48.3825 102.118 48.4011 102.443 48.4011C102.86 48.4011 103.171 48.3469 103.378 48.2386C103.693 48.0895 103.902 47.8829 104.007 47.6188C104.06 47.4342 104.086 47.253 104.086 47.0769V43.5429L104.099 43.5242H104.925L104.942 43.5429V49.1428L104.925 49.1614H104.099L104.086 49.1428V48.5823C103.638 49.0243 103.074 49.2444 102.394 49.2444C101.664 49.2444 101.098 49.092 100.694 48.7872C100.144 48.374 99.868 47.8338 99.868 47.1667V43.5412L99.8891 43.5242Z" fill="#FF0000"/>
<path d="M111.831 43.4633C112.634 43.4633 113.274 43.7884 113.75 44.4386L113.768 44.4742H113.773V43.5344L113.785 43.5158H114.611L114.629 43.5344V49.2241L114.611 49.2427H113.785L113.773 49.2241V48.2961H113.768C113.328 48.9633 112.664 49.2952 111.774 49.2952V49.2884L111.762 49.2952C110.971 49.2952 110.279 48.9819 109.683 48.3554C109.185 47.7695 108.938 47.1226 108.938 46.4165V46.3437C108.938 45.5884 109.212 44.9145 109.764 44.3201C110.344 43.7511 111.033 43.4633 111.831 43.4633ZM109.795 46.3606V46.3911C109.795 47.0617 110.068 47.6171 110.614 48.0591C110.957 48.3198 111.338 48.4502 111.757 48.4502C112.641 48.4502 113.253 48.0235 113.59 47.1683C113.68 46.9194 113.724 46.6705 113.724 46.4216V46.2895C113.724 45.9406 113.611 45.5749 113.388 45.1939C113.005 44.6114 112.493 44.3201 111.853 44.3201C110.989 44.3201 110.361 44.7214 109.971 45.5241C109.855 45.8086 109.795 46.088 109.795 46.3606Z" fill="#FF0000"/>
<path d="M121.072 43.4819C121.564 43.4819 122.02 43.6208 122.436 43.8968C122.526 43.8003 122.594 43.7359 122.644 43.7037C122.79 43.6072 122.927 43.548 123.053 43.5226C123.159 43.4938 123.261 43.4802 123.359 43.4802H123.549L123.556 43.487V44.3184L123.549 44.3252H123.396C123.269 44.3252 123.171 44.3608 123.102 44.4336C123.069 44.4742 123.053 44.5098 123.053 44.542C123.122 44.647 123.188 44.7824 123.248 44.9518C123.322 45.1719 123.359 45.3937 123.359 45.6139C123.359 46.1557 123.159 46.6367 122.76 47.0583C122.593 47.2141 122.468 47.3157 122.387 47.3597C122.269 47.4393 122.132 47.5121 121.977 47.5765C121.687 47.6882 121.394 47.7458 121.097 47.7458H121.06C120.714 47.7458 120.373 47.6696 120.039 47.5172C119.961 47.6103 119.923 47.7086 119.923 47.8119C119.923 47.9084 119.953 47.9676 120.014 47.993C120.178 48.1048 120.552 48.1624 121.139 48.1624L121.566 48.1556C122.361 48.1556 122.976 48.3385 123.412 48.7043C123.526 48.8126 123.605 48.8973 123.651 48.9566C123.851 49.2411 123.951 49.5442 123.951 49.8659C123.951 50.1876 123.846 50.5026 123.633 50.8108C123.584 50.887 123.491 50.992 123.352 51.1241C123.206 51.2528 123.087 51.3425 122.997 51.395C122.883 51.4678 122.758 51.5322 122.624 51.588C122.454 51.6558 122.29 51.71 122.136 51.7506C121.854 51.8116 121.608 51.8404 121.396 51.8404H121.188C120.83 51.8404 120.457 51.7777 120.069 51.6541C119.877 51.5813 119.707 51.5017 119.555 51.4136C119.45 51.3493 119.336 51.2646 119.213 51.1613C119.102 51.0529 119.023 50.9666 118.974 50.9022C118.749 50.5924 118.638 50.2808 118.638 49.9624V49.8964C118.638 49.5713 118.77 49.2326 119.035 48.8787C119.137 48.7584 119.237 48.6636 119.334 48.5959L119.371 48.5654C119.167 48.3724 119.065 48.1234 119.065 47.8186V47.8C119.065 47.5223 119.155 47.2666 119.334 47.0295C119.343 47.0211 119.346 47.0143 119.346 47.0058C119.257 46.9093 119.178 46.8077 119.107 46.6993C118.9 46.3589 118.796 45.9966 118.796 45.6156C118.796 45.094 118.984 44.6266 119.359 44.2118C119.497 44.0712 119.589 43.9865 119.633 43.9594C119.759 43.868 119.891 43.7867 120.03 43.719C120.371 43.5598 120.717 43.4819 121.072 43.4819ZM119.494 49.9252V49.937C119.494 50.1944 119.636 50.4281 119.921 50.6415C120.28 50.8785 120.737 50.9971 121.29 50.9971C121.796 50.9971 122.229 50.8802 122.593 50.6482C122.658 50.6076 122.737 50.5399 122.832 50.4433C123.007 50.2503 123.095 50.0606 123.095 49.871V49.8524C123.095 49.6678 123.016 49.4984 122.856 49.346C122.733 49.2377 122.573 49.153 122.373 49.0937C122.12 49.0294 121.877 48.9972 121.645 48.9972H121.065C120.759 48.9972 120.489 48.9786 120.251 48.943C120.15 49.004 120.019 49.1039 119.86 49.2444C119.617 49.4934 119.494 49.7203 119.494 49.9252ZM119.654 45.5902V45.6443C119.654 45.8967 119.747 46.1439 119.935 46.3843C120.034 46.4927 120.109 46.5655 120.162 46.6011C120.434 46.8026 120.742 46.9025 121.085 46.9025C121.455 46.9025 121.786 46.7806 122.074 46.5351C122.359 46.2709 122.501 45.9627 122.501 45.6139C122.501 45.2887 122.373 44.9958 122.116 44.735C121.983 44.6114 121.839 44.5166 121.689 44.4522C121.489 44.3675 121.29 44.3252 121.09 44.3252H121.06C120.791 44.3252 120.533 44.398 120.283 44.542C120.209 44.5826 120.116 44.6588 120.002 44.7706C119.884 44.8993 119.801 45.0195 119.758 45.1313C119.689 45.2887 119.654 45.4411 119.654 45.5902Z" fill="#FF0000"/>
<path d="M130.361 43.47C131.202 43.47 131.92 43.8358 132.52 44.5656C132.915 45.1397 133.112 45.7002 133.112 46.2455V46.3183C133.112 46.5028 133.1 46.596 133.075 46.596H128.435C128.435 46.789 128.516 47.06 128.679 47.4088C128.924 47.8592 129.277 48.1708 129.737 48.3486C129.961 48.4214 130.163 48.457 130.342 48.457C130.901 48.457 131.383 48.2182 131.79 47.7407C131.933 47.5477 132.026 47.3936 132.072 47.2767H132.084C132.414 47.4054 132.673 47.5138 132.861 47.6018C132.771 47.8542 132.571 48.1505 132.261 48.4875C131.699 49.0293 131.061 49.3003 130.347 49.3003C129.495 49.3003 128.769 48.9328 128.164 48.1979C127.769 47.6408 127.572 47.0481 127.572 46.4216V46.3674C127.572 45.5647 127.864 44.862 128.446 44.2591C128.994 43.7325 129.632 43.47 130.361 43.47ZM128.521 45.7645H132.177C132.007 45.2379 131.717 44.8518 131.309 44.6029C131.012 44.4149 130.687 44.3201 130.337 44.3201C129.741 44.3201 129.235 44.5927 128.815 45.1397C128.685 45.326 128.586 45.5359 128.521 45.7645Z" fill="#FF0000"/>
<path d="M138.881 43.4345H138.967C139.383 43.4345 139.777 43.5327 140.153 43.7292C140.276 43.7901 140.406 43.8765 140.545 43.9882C140.672 44.0966 140.772 44.1965 140.844 44.2897C140.906 44.3692 140.935 44.4167 140.935 44.4285C140.565 44.6368 140.32 44.779 140.202 44.8552H140.195C140.122 44.7469 140.013 44.6419 139.865 44.542C139.6 44.3659 139.285 44.2761 138.918 44.2761C138.491 44.2761 138.141 44.3811 137.872 44.5894C137.689 44.7502 137.596 44.9264 137.596 45.1194C137.596 45.2633 137.656 45.3751 137.773 45.4513C137.817 45.4919 137.881 45.5292 137.963 45.5664C138.143 45.6579 138.448 45.7544 138.881 45.856C139.085 45.8967 139.343 45.9458 139.658 46.0067C139.858 46.0541 140.025 46.1117 140.159 46.1761C140.282 46.2319 140.405 46.3064 140.531 46.3996C140.568 46.4233 140.644 46.4944 140.758 46.6096C141.002 46.8941 141.125 47.2039 141.125 47.5375V47.5731C141.125 47.9304 140.993 48.2674 140.728 48.584C140.623 48.6958 140.538 48.7754 140.477 48.8194C140.347 48.9108 140.229 48.9837 140.122 49.0362C139.73 49.2173 139.329 49.3071 138.918 49.3071H138.839C138.387 49.3071 137.953 49.1987 137.536 48.982C137.137 48.7567 136.828 48.4502 136.606 48.0608C136.61 48.0523 136.729 47.9863 136.961 47.8627L137.353 47.6527C137.541 47.9744 137.814 48.2047 138.172 48.3453C138.397 48.4249 138.633 48.4655 138.882 48.4655C139.241 48.4655 139.563 48.3825 139.849 48.2183C139.905 48.1895 139.979 48.1336 140.069 48.0489C140.204 47.8931 140.271 47.7272 140.271 47.5545C140.271 47.2903 140.102 47.0786 139.763 46.9228C139.682 46.8873 139.563 46.85 139.408 46.8145C138.756 46.7027 138.244 46.5791 137.874 46.447C137.12 46.1744 136.743 45.7341 136.743 45.1279V45.1092C136.743 44.7435 136.884 44.4065 137.165 44.0983C137.299 43.9662 137.394 43.8849 137.446 43.8579C137.626 43.7292 137.838 43.6292 138.083 43.5564C138.348 43.4735 138.615 43.4345 138.881 43.4345Z" fill="#FF0000"/>
<path d="M15.4784 21.4122C15.206 22.54 14.9933 23.6864 14.8579 24.8362C14.7226 25.986 14.6646 27.1409 14.7437 28.2771C14.7859 28.8444 14.8544 29.4083 14.9792 29.9586C15.104 30.5073 15.2798 31.039 15.4907 31.5623C15.7034 32.0821 15.953 32.602 16.301 33.0761C16.6455 33.5537 17.0761 33.977 17.5471 34.4156C17.2255 34.3529 16.9144 34.2412 16.6173 34.0989C16.4679 34.0278 16.3273 33.9448 16.1867 33.8568C16.0443 33.7721 15.902 33.684 15.7702 33.5824C15.2288 33.1947 14.7296 32.7205 14.3324 32.177C13.9317 31.6351 13.6346 31.0322 13.3956 30.4175C13.1583 29.8012 12.9755 29.1712 12.8419 28.5345C12.5765 27.2611 12.4834 25.9725 12.5027 24.6957C12.5255 23.4189 12.6591 22.1505 12.8999 20.8975C13.1073 19.8052 13.8192 19.1245 14.4308 19.1635C14.8949 19.1922 15.2218 19.6308 15.2956 19.729C15.8317 20.4419 15.5153 21.314 15.4784 21.4122Z" fill="#044983"/>
</svg>
